<svg width="200" height="200" viewBox="0 0 200 200" fill="none" xmlns="http://www.w3.org/2000/svg">
  <!-- Award/Medal base -->
  <circle cx="100" cy="80" r="35" stroke="currentColor" stroke-width="4" fill="currentColor" opacity="0.8"/>
  <circle cx="100" cy="80" r="25" stroke="currentColor" stroke-width="3" fill="none"/>
  
  <!-- Star in center -->
  <path d="M100 60 L105 70 L115 70 L107 77 L110 87 L100 82 L90 87 L93 77 L85 70 L95 70 Z" fill="currentColor" opacity="0.9"/>
  
  <!-- Ribbon -->
  <path d="M80 110 L100 115 L120 110 L120 160 L110 150 L100 155 L90 150 L80 160 Z" stroke="currentColor" stroke-width="3" fill="currentColor" opacity="0.7"/>
  
  <!-- Quality indicators -->
  <circle cx="60" cy="60" r="4" fill="currentColor" opacity="0.6"/>
  <circle cx="140" cy="60" r="4" fill="currentColor" opacity="0.6"/>
  <circle cx="60" cy="100" r="4" fill="currentColor" opacity="0.6"/>
  <circle cx="140" cy="100" r="4" fill="currentColor" opacity="0.6"/>
  
  <!-- Check marks -->
  <path d="M55 55 L58 58 L65 51" stroke="currentColor" stroke-width="2" fill="none"/>
  <path d="M135 55 L138 58 L145 51" stroke="currentColor" stroke-width="2" fill="none"/>
  <path d="M55 95 L58 98 L65 91" stroke="currentColor" stroke-width="2" fill="none"/>
  <path d="M135 95 L138 98 L145 91" stroke="currentColor" stroke-width="2" fill="none"/>
  
  <!-- Excellence rays -->
  <path d="M100 30 L100 20" stroke="currentColor" stroke-width="3"/>
  <path d="M130 50 L140 40" stroke="currentColor" stroke-width="3"/>
  <path d="M130 110 L140 120" stroke="currentColor" stroke-width="3"/>
  <path d="M70 50 L60 40" stroke="currentColor" stroke-width="3"/>
  <path d="M70 110 L60 120" stroke="currentColor" stroke-width="3"/>
  
  <!-- Quality text placeholder -->
  <rect x="85" y="170" width="30" height="4" rx="2" fill="currentColor" opacity="0.5"/>
  <rect x="80" y="180" width="40" height="4" rx="2" fill="currentColor" opacity="0.5"/>
</svg>
